<?xml version="1.0" encoding="UTF-8"?>
<svg id="_圖層_2" data-name="圖層 2" xmlns="http://www.w3.org/2000/svg" viewBox="0 0 94.22 88.88">
  <defs>
    <style>
      .cls-1 {
        fill: #9b8872;
      }

      .cls-1, .cls-2, .cls-3, .cls-4, .cls-5, .cls-6 {
        stroke-width: 0px;
      }

      .cls-2 {
        fill: #866d59;
      }

      .cls-3 {
        fill: #d4b384;
      }

      .cls-4 {
        fill: #f6ee77;
      }

      .cls-5 {
        fill: #fff;
      }

      .cls-6 {
        fill: #fadce1;
      }
    </style>
  </defs>
  <g id="_圖層_1-2" data-name="圖層 1">
    <g>
      <path class="cls-4" d="M92.45,30.23c-3.41-8.76-13.61-16.06-23.34-12.79C68.19,9.41,59.85-.09,48,0c-10.78.08-22.68,7.38-21.92,22.48-.04-.89-6.25-.95-6.96-.9-2.54.16-5.04.81-7.35,1.88-16.58,7.68-15.42,31.88,1.99,37.6-3.32,10.45.88,22.19,11.41,26,6.94,2.51,16.33,1.24,22.84-3.45,6.86,5.28,16.41,7.14,24.98,3.08,10.73-5.09,15.21-16,12.25-27.41,9.43-5.77,10.66-20.13,7.2-29.04Z"/>
      <g>
        <path class="cls-5" d="M76.98,45.16c-.85-3.77-2.89-7.04-5.48-9.86-.61-.66-1.34-1.24-1.96-1.9l-42.61,2.18c-.17.51-1.68.14-2.07.56-4.73,5.07-6.47,13.52-4.56,20.09.69,2.36,1.8,4.48,3.25,6.33,2.7,3.45,6.55,5.92,10.93,7.07,5,1.32,10.22,1.26,15.35,1.05,4.99-.21,10.02-.56,14.73-2.35,9.41-3.58,14.65-13.36,12.42-23.17Z"/>
        <g id="_5eCgDv" data-name="5eCgDv">
          <g>
            <path class="cls-3" d="M48.44,26.34c3.64-.15,5.77.21,8.5.65,1.25.2,1.8.31,2.72-.47,1.53-1.28,3.35-2.99,5.48-3s3.64,1.96,4.55,3.63c1.03,1.9,1.62,4.07,2.09,6.16.29,1.3.57,2.64,1.39,3.71,1.41,1.84,2.8,4.12,3.36,6.39.18.75.49,1.47.6,2.24.05.36-.04.55-.42.61-11.67,1.96-23.3-3.24-29.92-12.18-.21-.28-1.94-.55-1.86-.8.02-.07.07-.13.12-.18,1.34-1.46,2.43-3.93,3.13-5.77.12-.31.27-1,.27-1Z"/>
            <path class="cls-1" d="M48.55,26.33s.03.63,0,.96c-.36,4.57-1.75,9.28-4.82,12.84-3.61,4.19-9.17,6.19-14.48,7.1-.81.14-9.53.38-9.41-.29,1.25-7.44,3.83-8.42,4.53-11.04.32-2.56,1.09-5.14,2.27-7.48.91-1.8,2.1-3.87,4.41-3.79,1.76.06,4.65,1.28,6.48,3.1.56.56,1.54.23,2.3-.02,2.31-.78,4.78-1.2,7.2-1.32.53-.03,1.24-.06,1.53-.05Z"/>
          </g>
        </g>
        <g>
          <path class="cls-6" d="M36.38,50.91c-.73-.88-2.01-1.11-3-.53-.1.06-.19.12-.27.18-.61-.48-1.46-.64-2.23-.38-1.22.41-1.75,1.69-1.59,2.9.27,2.09,2.74,4.53,4.97,3.59,1.98-.83,3.7-3.87,2.13-5.77Z"/>
          <path class="cls-6" d="M67.25,49.4c-.73-.88-2.01-1.11-3-.53-.1.06-.19.12-.27.18-.61-.48-1.46-.64-2.23-.38-1.22.41-1.75,1.69-1.59,2.9.27,2.09,2.74,4.53,4.97,3.59,1.98-.83,3.7-3.87,2.13-5.77Z"/>
          <g>
            <path class="cls-2" d="M42.4,50.52c-.22-.35-.65-.68-1.07-.76-.88-.17-1.93.34-2.09,1.29-.07.43-.15.86-.22,1.3-.08.46-.03.93.23,1.33.22.35.65.68,1.07.76.88.17,1.93-.34,2.09-1.29.07-.43.15-.86.22-1.3.08-.46.03-.93-.23-1.33Z"/>
            <path class="cls-2" d="M54.74,48.76c-.82.47-1.22,1.42-.81,2.21l.74,1.43c.38.74,1.46,1.07,2.28.61.82-.47,1.22-1.42.81-2.21l-.74-1.43c-.38-.74-1.46-1.07-2.28-.61Z"/>
            <path class="cls-2" d="M51.02,52.38l-4.65.7c-2.21.33-1.7,3.78.52,3.44l4.65-.7c2.21-.33,1.7-3.78-.52-3.44Z"/>
          </g>
        </g>
      </g>
      <path class="cls-5" d="M45.35,12.43l.29,5.06c.18,3.22,4.48,2.97,4.3-.25l-.29-5.06c-.18-3.22-4.48-2.97-4.3.25Z"/>
      <path class="cls-5" d="M28.33,73.11l-2.26,4.24c-1.44,2.69,2.36,4.72,3.8,2.03l2.26-4.24c1.44-2.69-2.36-4.72-3.8-2.03Z"/>
      <path class="cls-5" d="M68.6,72.84l2.29,4.28c1.45,2.72-2.34,4.75-3.79,2.03l-2.29-4.28c-1.45-2.72,2.34-4.75,3.79-2.03Z"/>
      <path class="cls-5" d="M10.13,39.37l4.37,2.1c2.77,1.34,4.64-2.54,1.87-3.88l-4.37-2.1c-2.77-1.34-4.64,2.54-1.87,3.88Z"/>
      <path class="cls-5" d="M86.43,36.91l-4.52,1.79c-2.87,1.14-4.46-2.86-1.58-4l4.52-1.79c2.87-1.14,4.46,2.86,1.58,4Z"/>
    </g>
  </g>
</svg>