<svg width="151" height="137" viewBox="0 0 151 137" fill="none" xmlns="http://www.w3.org/2000/svg">
<path d="M124.927 123.573C126.728 121.267 129.175 120.043 132.058 119.948C134.882 119.866 137.883 120.819 140.142 122.538C141.272 123.397 142.19 124.42 142.907 125.562C143.119 125.491 143.319 125.433 143.531 125.362C147.697 124.044 149.838 121.396 150.368 118.677C146.002 118.477 141.589 115.935 139.33 112.24C139.083 111.84 138.883 111.463 138.683 111.075C132.905 112.911 129.34 114.017 124.056 112.052C119.726 110.439 118.867 107.062 118.232 106.991C110.465 106.073 102.911 107.639 95.7798 110.675C95.4151 110.828 95.0738 110.993 94.7561 111.157C92.0379 112.593 89.0255 113.617 85.8483 113.758L85.7424 113.758C85.8719 113.946 86.0131 114.123 86.1308 114.323C86.7662 115.394 87.1427 116.465 87.3192 117.524C88.6842 119.183 89.1314 121.302 88.4253 123.585C87.6369 126.115 95.6857 121.926 93.1087 123.55C95.4386 125.633 104.323 123.432 107.159 123.302C112.713 123.067 116.655 125.845 121.585 127.716C121.985 127.869 122.385 127.998 122.786 128.116C122.986 127.739 123.221 127.386 123.456 127.033C123.727 125.809 124.103 124.621 124.927 123.561L124.927 123.573Z" fill="#9B8872"/>
<path d="M142.907 125.562C142.189 124.42 141.272 123.408 140.142 122.537C137.883 120.819 134.87 119.866 132.058 119.948C129.175 120.042 126.716 121.266 124.927 123.573C124.103 124.632 123.727 125.821 123.456 127.045C123.209 127.398 122.985 127.751 122.785 128.127C129.916 130.34 136.059 127.774 142.919 125.562L142.907 125.562Z" fill="#D4B384"/>
<path d="M150.368 118.677C151.003 115.429 149.32 112.099 145.931 110.84C144.119 110.169 141.825 110.075 139.13 110.934C138.977 110.981 138.836 111.028 138.683 111.075C138.883 111.463 139.083 111.84 139.33 112.24C141.589 115.947 146.002 118.477 150.368 118.677Z" fill="#D4B384"/>
<path d="M109.312 48.3129C106.041 47.2655 103.687 44.4175 103.087 41.1223C101.934 41.0753 100.769 41.1459 99.557 41.3812C99.2746 39.0864 98.4509 37.0151 97.6154 34.9085C96.8741 33.0373 95.921 31.2603 94.8031 29.5774C92.6026 26.2704 89.7785 23.3636 86.5896 20.9981C81.6356 17.3264 75.752 15.4904 69.6802 14.7608C67.2208 14.4666 64.585 14.8785 62.3374 13.631C61.3608 13.0897 60.5724 12.6307 59.8663 12.207C42.0979 25.682 25.9651 41.1224 10.2441 56.9864C10.5383 57.3747 10.8443 57.7631 11.1502 58.1397C12.6564 59.9403 12.5623 62.5529 12.4681 65.036C12.0092 76.1102 19.0578 88.5496 28.2244 94.5045C31.1544 96.411 36.9439 99.9063 43.0981 99.2119C43.2746 99.1884 43.4747 99.6356 43.7571 100.424C44.2748 100.365 44.8044 100.342 45.3456 100.401C52.0647 101.107 58.8779 102.519 63.3612 108.038C65.5146 110.698 66.8443 114.252 66.9737 117.783C69.7625 117.312 72.6337 117.971 74.9989 119.477C80.1765 122.773 81.1649 130.187 77.4936 134.824C87.6251 137.813 98.498 136.718 108.135 129.269C112.56 125.844 117.055 121.796 119.091 116.571C119.773 114.805 121.491 109.345 121.491 109.345C128.598 109.25 131.058 106.979 135.847 101.719C140.636 96.4699 142.59 88.5025 139.907 81.9121C137.518 76.0396 133.329 70.732 127.551 70.9085C126.104 70.9556 121.479 66.566 122.338 64.8242C124.056 61.3407 121.279 53.4675 115.937 47.7363C113.948 48.7248 111.618 49.019 109.324 48.2894L109.312 48.3129Z" fill="white"/>
<path d="M58.5484 123.808C59.0544 122.784 59.7487 121.867 60.5841 121.007C62.1727 119.383 64.4909 118.254 66.7031 117.83C66.7972 117.818 66.8796 117.83 66.9737 117.806C66.8325 114.276 65.5146 110.71 63.3612 108.062C58.8897 102.543 52.0647 101.119 45.3456 100.424C44.8043 100.365 44.2748 100.389 43.7571 100.448C44.5808 102.754 46.1105 108.074 49.8642 113.699C52.3353 117.394 55.2771 120.819 58.5484 123.82L58.5484 123.808Z" fill="#9B8872"/>
<path d="M74.9872 119.489C72.6219 117.983 69.7508 117.324 66.9619 117.794C67.0914 120.984 66.2441 124.161 64.1261 126.632C63.8319 126.974 63.5024 127.303 63.1611 127.609C67.5738 130.857 72.4337 133.352 77.47 134.835C81.1414 130.187 80.1647 122.784 74.9754 119.489L74.9872 119.489Z" fill="#D4B384"/>
<path d="M60.5841 120.995C59.7486 121.855 59.0543 122.784 58.5483 123.796C60.031 125.15 61.5725 126.433 63.1728 127.609C63.5141 127.292 63.8436 126.974 64.1377 126.633C66.2558 124.161 67.1031 120.984 66.9736 117.794C66.8795 117.806 66.7971 117.794 66.703 117.818C64.4908 118.253 62.1726 119.371 60.5841 120.995Z" fill="#D4B384"/>
<path d="M103.087 41.1226C103.687 44.4178 106.029 47.2775 109.312 48.3132C111.607 49.0428 113.937 48.7486 115.925 47.76C112.524 44.1 108.076 41.3344 103.087 41.1226Z" fill="#D4B384"/>
<path d="M113.477 98.3883C111.971 97.1879 113.772 95.046 115.266 96.2464C118.384 98.7413 120.667 102.154 121.773 106.003C122.303 107.838 119.632 108.662 119.102 106.815C118.137 103.437 116.231 100.589 113.489 98.4L113.477 98.3883Z" fill="#FADCE1"/>
<path d="M121.456 108.026C121.009 108.309 120.455 108.403 119.949 108.285C119.314 108.121 118.832 107.638 118.632 106.944C117.69 103.66 115.855 100.907 113.172 98.7646C112.607 98.3174 112.348 97.6937 112.442 97.0464C112.536 96.3756 113.019 95.7872 113.654 95.5401C114.289 95.2929 114.984 95.4106 115.549 95.8696C118.726 98.3998 121.091 101.954 122.209 105.873C122.409 106.579 122.256 107.262 121.785 107.744C121.679 107.85 121.562 107.944 121.432 108.026L121.456 108.026ZM113.783 98.0114C116.619 100.271 118.561 103.19 119.561 106.673C119.667 107.038 119.879 107.273 120.185 107.344C120.503 107.426 120.879 107.309 121.114 107.061C121.279 106.897 121.444 106.591 121.303 106.12C120.232 102.401 117.984 99.0236 114.96 96.611C114.572 96.305 114.231 96.3403 114.007 96.4227C113.678 96.5522 113.442 96.8581 113.395 97.1759C113.348 97.4819 113.478 97.7643 113.772 97.9997L113.783 98.0114Z" fill="#FADCE1"/>
<path d="M132.093 84.9248C130.34 84.5717 128.492 85.6544 127.916 88.5612C126.621 95.0928 135.882 98.1762 135.635 90.1383C135.541 87.1608 133.87 85.2896 132.081 84.9248L132.093 84.9248Z" fill="#FADCE1"/>
<path d="M128.998 84.4543C128.963 84.2071 128.869 83.9482 128.681 83.7717C128.528 83.6305 128.363 83.5246 128.163 83.4657C128.163 83.4657 128.151 83.4657 128.139 83.4657C127.857 83.3245 127.575 83.2892 127.257 83.348C127.069 83.3833 126.904 83.4657 126.751 83.5952C126.551 83.7011 126.374 83.8541 126.245 84.0659C126.104 84.2778 126.057 84.5367 126.057 84.7838C126.01 85.0427 126.057 85.3487 126.186 85.5723C126.339 85.8312 126.586 86.0548 126.88 86.1254C127.045 86.1607 127.21 86.1725 127.386 86.1607L127.41 86.1607C128.045 86.1372 128.54 85.7606 128.834 85.2192C128.963 84.9839 129.01 84.7367 128.987 84.4661L128.998 84.4543Z" fill="#FADCE1"/>
<path d="M132.693 82.5359C132.658 82.3829 132.588 82.2535 132.493 82.1358C132.34 81.9357 132.129 81.771 131.893 81.7121C131.787 81.7004 131.681 81.6768 131.576 81.665C131.481 81.665 131.387 81.665 131.293 81.7003C131.175 81.6768 131.07 81.6768 130.952 81.7003C130.799 81.7003 130.646 81.7474 130.517 81.8298C130.434 81.8886 130.352 81.9475 130.281 82.0063C130.163 82.1123 130.081 82.2417 130.034 82.3829C129.975 82.4771 129.952 82.5712 129.952 82.6771C129.916 82.8301 129.916 82.9949 129.963 83.1479C129.975 83.3244 130.022 83.4891 130.105 83.6304C130.105 83.6304 130.105 83.6539 130.116 83.6539C130.269 83.9128 130.517 84.1364 130.811 84.2071C130.917 84.2188 131.022 84.2424 131.128 84.2541C131.34 84.2541 131.54 84.2071 131.729 84.1011L132.011 83.9834C132.093 83.9246 132.176 83.8658 132.246 83.8069C132.246 83.8069 132.258 83.7834 132.27 83.7716C132.305 83.7481 132.34 83.7128 132.387 83.6775C132.505 83.5715 132.588 83.4421 132.635 83.3008C132.705 83.1596 132.74 83.0067 132.74 82.8537C132.729 82.7478 132.717 82.6418 132.705 82.5359L132.693 82.5359Z" fill="#FADCE1"/>
<path d="M136.6 83.4537C136.6 83.4537 136.494 83.3595 136.435 83.3125C136.435 83.2889 136.424 83.2772 136.412 83.2536C136.365 83.1595 136.271 83.0418 136.212 82.9712C135.812 82.5593 135.176 82.4651 134.682 82.7476C134.588 82.7946 134.506 82.8653 134.435 82.9477C134.27 83.0889 134.153 83.2772 134.105 83.4773C134.058 83.7009 134.035 83.8891 134.094 84.1245C134.117 84.2304 134.164 84.3364 134.211 84.4305C134.317 84.6188 134.494 84.7953 134.682 84.9012C134.706 84.913 134.729 84.9248 134.753 84.9365C134.812 84.9836 134.87 85.0425 134.929 85.0895C135.165 85.3014 135.435 85.4426 135.753 85.4426C136.035 85.4426 136.388 85.3249 136.588 85.1131C136.8 84.8895 136.953 84.5953 136.941 84.2893C136.941 83.9951 136.835 83.6538 136.612 83.4537L136.6 83.4537Z" fill="#FADCE1"/>
<path d="M109.312 111.439C107.559 111.086 105.711 112.169 105.135 115.076C103.84 121.607 113.101 124.691 112.854 116.653C112.76 113.675 111.089 111.804 109.3 111.439L109.312 111.439Z" fill="#FADCE1"/>
<path d="M106.205 110.969C106.17 110.722 106.076 110.463 105.888 110.286C105.735 110.145 105.57 110.039 105.37 109.98C105.37 109.98 105.358 109.98 105.346 109.98C105.064 109.839 104.782 109.804 104.464 109.863C104.276 109.898 104.111 109.98 103.958 110.11C103.758 110.216 103.581 110.369 103.452 110.581C103.311 110.792 103.264 111.051 103.264 111.298C103.217 111.557 103.264 111.863 103.393 112.087C103.546 112.346 103.793 112.569 104.087 112.64C104.252 112.675 104.417 112.687 104.593 112.675L104.617 112.675C105.252 112.652 105.747 112.275 106.041 111.734C106.17 111.499 106.217 111.251 106.194 110.981L106.205 110.969Z" fill="#FADCE1"/>
<path d="M109.9 109.039C109.865 108.886 109.795 108.756 109.7 108.639C109.547 108.439 109.336 108.274 109.1 108.215C108.994 108.203 108.888 108.18 108.783 108.168C108.688 108.168 108.594 108.168 108.5 108.203C108.382 108.18 108.277 108.18 108.159 108.203C108.006 108.203 107.853 108.25 107.724 108.333C107.641 108.392 107.559 108.45 107.488 108.509C107.371 108.615 107.288 108.745 107.241 108.886C107.182 108.98 107.159 109.074 107.159 109.18C107.123 109.333 107.123 109.498 107.17 109.651C107.182 109.827 107.229 109.992 107.312 110.133C107.312 110.133 107.312 110.157 107.323 110.157C107.476 110.416 107.724 110.639 108.018 110.71C108.124 110.722 108.23 110.745 108.335 110.757C108.547 110.757 108.747 110.71 108.936 110.604L109.218 110.486C109.3 110.428 109.383 110.369 109.453 110.31C109.453 110.31 109.465 110.286 109.477 110.275C109.512 110.251 109.547 110.216 109.595 110.18C109.712 110.075 109.795 109.945 109.842 109.804C109.912 109.663 109.948 109.51 109.948 109.357C109.936 109.251 109.924 109.145 109.912 109.039L109.9 109.039Z" fill="#FADCE1"/>
<path d="M113.819 109.969C113.819 109.969 113.713 109.875 113.654 109.828C113.654 109.804 113.642 109.792 113.631 109.769C113.584 109.675 113.489 109.557 113.431 109.486C113.03 109.074 112.395 108.98 111.901 109.263C111.807 109.31 111.724 109.38 111.654 109.463C111.489 109.604 111.371 109.792 111.324 109.992C111.277 110.216 111.254 110.404 111.312 110.64C111.336 110.746 111.383 110.851 111.43 110.946C111.536 111.134 111.713 111.31 111.901 111.416C111.924 111.428 111.948 111.44 111.971 111.452C112.03 111.499 112.089 111.558 112.148 111.605C112.383 111.816 112.654 111.958 112.972 111.958C113.254 111.958 113.607 111.84 113.807 111.628C114.019 111.405 114.172 111.11 114.16 110.804C114.16 110.51 114.054 110.169 113.831 109.969L113.819 109.969Z" fill="#FADCE1"/>
<path d="M84.9776 15.4668C79.5176 11.6656 73.128 9.86501 66.5501 9.26481C65.0086 9.12359 63.3965 9.24127 61.8433 9.11182L10.103 61.3524C10.4678 62.1997 8.1261 63.4825 8.11433 64.4711C7.96136 76.4279 15.563 89.2086 25.6239 95.3518C29.2364 97.5525 33.8727 99.0824 37.8618 99.7532C45.2986 101.012 52.3236 99.5767 59.2427 95.9755C67.1503 91.8565 73.7281 85.7251 80.0118 79.4995C86.1307 73.4505 92.132 67.1543 96.0505 59.3988C103.876 43.9114 99.2041 25.3877 84.9776 15.4668Z" fill="white"/>
<path d="M26.7769 24.623C31.2484 20.2098 34.3667 18.2091 38.3558 15.5965C40.1797 14.4079 41.0034 13.9018 41.2741 11.8423C41.733 8.44122 42.0742 4.1457 44.7807 1.66254C47.4871 -0.820625 51.6998 -0.0674354 54.7828 1.0035C58.3012 2.22743 61.5724 4.29872 64.5966 6.42882C66.4676 7.7469 68.3856 9.13558 70.6685 9.54748C74.6105 10.2536 79.0114 11.5364 82.3651 13.7959C83.4712 14.5373 84.6832 15.0905 85.7305 15.9496C86.2129 16.3497 86.3188 16.691 85.907 17.2206C73.3279 33.2611 52.4647 40.1457 33.6607 36.4269C33.0723 36.3092 30.5542 37.9803 30.3659 37.5684C30.3071 37.4507 30.3071 37.3213 30.3071 37.2036C30.3306 33.7789 28.8362 29.3775 27.5888 26.2118C27.377 25.6822 26.7651 24.623 26.7651 24.623L26.7769 24.623Z" fill="#D4B384"/>
<path d="M29.4011 22.1514C29.4011 22.1514 31.5427 24.6346 31.8957 25.0818C36.7438 31.3191 39.3914 39.2511 39.615 47.3597C39.8856 56.8804 34.3904 68.7667 27.3536 74.8157C24.1647 77.5578 14.8569 85.0308 14.2214 84.0422C7.18465 73.1093 9.32628 68.8726 7.18466 64.7183C4.61941 61.0818 2.60723 56.904 1.39521 52.5614C0.465599 49.2191 -0.428708 45.1943 2.60722 42.617C4.92536 40.6516 10.0088 38.851 14.4568 39.0393C15.8218 39.0981 16.6925 37.5565 17.3633 36.3443C19.399 32.6725 22.0701 29.2714 25.0002 26.294C25.6356 25.6467 28.2126 23.0929 29.4011 22.1396L29.4011 22.1514Z" fill="#9B8872"/>
<path d="M64.8675 44.9826C62.6317 42.4053 64.2438 38.4629 67.3033 37.9804C68.9036 37.7215 70.7393 38.357 71.763 39.781C74.7754 43.9941 68.5859 48.831 65.0322 45.1709C64.9734 45.1121 64.9146 45.0415 64.8557 44.9826L64.8675 44.9826Z" fill="#866D59"/>
<path d="M42.7216 67.8487C40.7683 67.5662 38.8738 68.7666 38.2736 70.6613C38.2148 70.8496 38.1677 71.0262 38.1442 71.2145C36.8145 71.3204 35.5437 72.0853 34.8729 73.3093C33.7904 75.2628 34.6023 77.4989 36.2144 78.8522C38.9914 81.206 44.9574 81.4413 46.7107 77.6636C48.264 74.2978 46.9343 68.4371 42.7334 67.8487L42.7216 67.8487Z" fill="#FADCE1"/>
<path d="M80.6472 28.9537C78.6938 28.6712 76.7993 29.8716 76.1992 31.7664C76.1404 31.9547 76.0933 32.1312 76.0697 32.3195C74.7401 32.4254 73.4692 33.1904 72.7985 34.4143C71.7159 36.3679 72.5278 38.6039 74.1399 39.9573C76.917 42.311 82.8829 42.5463 84.6363 38.7686C86.1895 35.4028 84.8598 29.5421 80.659 28.9537L80.6472 28.9537Z" fill="#FADCE1"/>
<path d="M43.969 65.5891C41.7333 63.0118 43.3454 59.0693 46.4049 58.5868C48.0052 58.3279 49.8409 58.9634 50.8646 60.3874C53.877 64.6005 47.6875 69.4374 44.1338 65.7774C44.0749 65.7186 44.0161 65.648 43.9573 65.5891L43.969 65.5891Z" fill="#866D59"/>
<path d="M66.0796 53.9028C66.2325 53.7498 66.3737 53.5733 66.4679 53.3379C66.6679 52.8201 66.5032 52.2434 66.0207 51.8668C65.5147 51.4667 64.8558 51.4314 64.3733 51.7727C62.6906 52.9613 61.9257 53.1967 61.7492 53.1496C61.6433 53.1261 61.6198 53.079 61.608 53.0555C61.4668 52.8201 61.6669 52.1493 61.7728 51.7491C61.8316 51.5491 61.8787 51.3726 61.914 51.2196C62.0787 50.3722 61.5021 49.7956 60.8432 49.6661C60.1724 49.5249 59.3723 49.8662 59.1958 50.7371L58.8545 52.467C58.0426 52.6318 57.3954 52.8436 56.5364 53.3261C56.2422 53.4909 56.0304 53.7851 55.948 54.1381C55.8539 54.5265 55.9363 54.9502 56.1481 55.2679C56.4069 55.6445 56.9365 56.0329 57.9602 55.6681C58.9486 55.3268 58.9486 55.3268 59.5605 55.6092C59.5488 56.1741 59.3958 56.6213 58.5721 57.7158C58.0308 58.4454 58.325 59.281 58.8898 59.7047C59.1252 59.8812 59.4193 59.9871 59.7135 59.9871C60.0548 59.9871 60.396 59.8341 60.6667 59.5046C61.5492 60.3284 62.6082 60.9639 63.6673 61.1875C63.9732 61.2464 64.2674 61.2817 64.5616 61.2817C65.3971 61.2817 66.1855 61.0228 66.868 60.5167C67.6446 59.9283 68.08 59.2222 68.1741 58.4219C68.3506 56.8449 67.1504 55.2091 66.0796 53.9145L66.0796 53.9028ZM62.5965 55.8328L62.7377 55.7975C63.126 55.6798 63.4555 55.5504 63.7732 55.4209C64.3968 56.1035 65.4559 57.2686 65.3971 57.9629C65.3971 58.0924 65.3265 58.1865 65.2205 58.2807C64.9264 58.5043 64.5969 58.5749 64.2086 58.4925C63.4672 58.3395 62.6553 57.6805 62.1376 57.0215C62.3023 56.6331 62.4435 56.2447 62.5376 55.8446C62.5729 55.8446 62.5965 55.8328 62.62 55.8211L62.5965 55.8328Z" fill="#866D59"/>
<path d="M91.1436 82.9007C88.1782 78.1462 82.6947 74.5451 76.8229 73.8742C71.057 73.2152 66.0913 75.7808 62.0433 79.582C61.9139 79.6644 61.7845 79.7585 61.655 79.888C58.0896 83.4303 55.9127 87.9024 54.0181 92.4921C53.065 94.8105 56.501 96.7405 57.4777 94.3868C59.0427 90.5974 60.749 86.855 63.4554 83.7363C66.7149 80.2646 70.704 77.4048 75.6815 77.699C83.8715 78.1698 93.4029 86.9962 88.1665 95.2812C85.7307 99.1413 81.4592 101.989 76.8465 100.295C74.7166 99.5061 73.7399 102.495 75.2579 103.755C75.1284 103.966 75.0108 104.19 74.8813 104.402C74.7872 104.543 74.6931 104.696 74.5989 104.837C74.5519 104.896 74.14 105.485 74.3989 105.132C74.0812 105.567 73.8458 105.955 73.8576 106.508C73.8576 107.003 74.0929 107.591 74.4695 107.909C75.1873 108.533 76.5994 108.733 77.2583 107.85C77.8702 107.014 78.4586 106.167 78.9646 105.261C79.0469 105.108 79.1058 104.943 79.1528 104.767C83.7303 104.955 88.037 102.178 90.7788 98.447C94.5796 93.2453 94.0736 87.514 91.1789 82.889L91.1436 82.9007Z" fill="#FADCE1"/>
<path d="M83.5653 74.6981C80.8707 69.7789 80.4117 63.2356 82.6946 57.7867C84.9421 52.432 89.6019 49.3605 94.8971 47.6893C95.0383 47.6187 95.1795 47.5481 95.356 47.501C100.181 46.1241 100.534 50.3843 97.8507 50.9492C93.2027 51.9495 88.7782 54.1856 86.6013 58.6576C83.0123 66.0365 86.0482 78.6642 95.8385 78.1463C100.392 77.8992 104.97 75.5808 105.746 70.7321C106.111 68.4843 109.182 69.0963 109.547 71.0381C109.794 71.0381 110.041 71.0381 110.3 71.0146C110.477 71.0146 110.642 70.991 110.818 70.9793C110.889 70.9793 111.607 70.8969 111.171 70.9557C111.701 70.8851 112.16 70.8734 112.642 71.1558C113.066 71.403 113.466 71.8854 113.572 72.3797C113.772 73.3212 113.254 74.6393 112.148 74.7805C111.112 74.91 110.1 75.0041 109.053 75.0041C108.877 75.0041 108.7 74.9688 108.535 74.9217C106.464 79.0054 101.934 81.4062 97.3329 81.9711C90.9316 82.7478 86.1894 79.4997 83.5653 74.7099L83.5653 74.6981Z" fill="#FADCE1"/>
</svg>
