<?xml version="1.0" encoding="UTF-8"?>
<svg id="_圖層_2" data-name="圖層 2" xmlns="http://www.w3.org/2000/svg" viewBox="0 0 94.25 89.67">
  <defs>
    <style>
      .cls-1 {
        fill: #fbe2e7;
      }

      .cls-1, .cls-2, .cls-3, .cls-4, .cls-5 {
        stroke-width: 0px;
      }

      .cls-2 {
        fill: #866d59;
      }

      .cls-3 {
        fill: #f8cad7;
      }

      .cls-4 {
        fill: #f9e1e7;
      }

      .cls-5 {
        fill: #fff;
      }
    </style>
  </defs>
  <g id="_圖層_1-2" data-name="圖層 1">
    <g>
      <path class="cls-3" d="M93,32.75c-2.9-8.94-12.67-16.81-22.57-14.11C69.97,10.58,62.19.62,50.35.03c-10.77-.53-23.07,6.07-23.17,21.19,0-.89-6.18-1.3-6.9-1.3-2.54.01-5.08.53-7.44,1.46-17,6.72-17.22,30.95-.16,37.65-3.91,10.25-.39,22.2,9.9,26.61,6.78,2.9,16.23,2.17,23-2.14,6.55,5.67,15.98,8.07,24.76,4.5,11-4.46,16.1-15.1,13.8-26.66,9.74-5.22,11.8-19.49,8.85-28.58Z"/>
      <path class="cls-5" d="M46.26,9.63v5.07c0,3.22,4.3,3.23,4.3,0v-5.07c0-3.22-4.3-3.23-4.3,0Z"/>
      <path class="cls-5" d="M26.53,71.89l-2.5,4.1c-1.59,2.6,2.08,4.85,3.67,2.24l2.5-4.1c1.59-2.6-2.08-4.85-3.67-2.24Z"/>
      <path class="cls-5" d="M66.76,73.93l2.04,4.4c1.3,2.8-2.61,4.61-3.9,1.81l-2.04-4.4c-1.3-2.8,2.61-4.61,3.9-1.81Z"/>
      <path class="cls-5" d="M10.29,37.17l4.24,2.35c2.69,1.49,4.78-2.27,2.09-3.76l-4.24-2.35c-2.69-1.49-4.78,2.27-2.09,3.76Z"/>
      <path class="cls-5" d="M86.61,39.08l-4.62,1.53c-2.93.97-4.29-3.11-1.35-4.09l4.62-1.53c2.93-.97,4.29,3.11,1.35,4.09Z"/>
      <g>
        <path class="cls-5" d="M24.44,63.48c2.45,3.34,6.03,5.79,10.14,7.01,4.69,1.4,9.63,1.49,14.49,1.44,4.72-.05,9.5-.24,14.01-1.8,9.01-3.12,14.24-12.21,12.42-21.57-.7-3.59-2.53-6.74-4.9-9.49-.96-1.11-2.27-1.99-2.76-3.43-.83-2.47-.21-2.83-.82-5.35-.5-2.11-1.5-4.1-2.87-5.78-2.7-3.3-6.86-5.28-11.15-4.82-2.04.22-3.54.84-5.37,2.13-.7.49-1.37-.48-2.45-.91-6.1-2.42-11.78.81-14.52,5.5-1.87,3.21-2.39,6.88-2.99,10.54-.13.82-.19.52-1.23,1.57-4.63,4.66-6.51,12.61-4.89,18.88.58,2.25,1.58,4.29,2.89,6.08Z"/>
        <g>
          <path class="cls-4" d="M47.81,27.98c-.41-1.13,1.25-1.69,1.65-.56.85,2.35.95,4.92.28,7.33-.32,1.15-2.01.72-1.69-.44.59-2.12.5-4.26-.25-6.33Z"/>
          <path class="cls-4" d="M48.89,36.1c-.14,0-.29-.02-.43-.06-.84-.23-1.29-1.05-1.05-1.91.55-1.99.47-3.98-.23-5.92-.2-.55-.11-1.1.24-1.52.35-.42.94-.63,1.49-.53.55.1.98.47,1.19,1.03.89,2.46,1,5.21.3,7.74-.22.8-.87,1.17-1.5,1.17ZM48.63,27.47c-.07,0-.15.03-.19.08-.01.02-.05.06,0,.2h0c.8,2.21.89,4.48.26,6.74-.03.11-.04.22.12.26.22.06.26-.12.28-.18.63-2.26.53-4.72-.26-6.93-.06-.15-.13-.17-.17-.17-.01,0-.03,0-.04,0Z"/>
        </g>
        <g>
          <g>
            <path class="cls-1" d="M32.84,51.03c-.72-.98-2.07-1.3-3.16-.75-.11.05-.21.12-.3.18-.62-.54-1.51-.77-2.34-.54-1.32.37-1.96,1.69-1.87,2.98.16,2.24,2.63,4.97,5.05,4.11,2.15-.76,4.16-3.89,2.61-5.99Z"/>
            <path class="cls-1" d="M72.37,51.18c-.72-.98-2.07-1.3-3.16-.75-.11.05-.21.12-.3.18-.62-.54-1.51-.77-2.34-.54-1.32.37-1.96,1.69-1.86,2.99.16,2.24,2.64,4.97,5.06,4.11,2.15-.77,4.16-3.89,2.61-5.99Z"/>
          </g>
          <g>
            <path class="cls-2" d="M52.26,54.55c-1.45-.25-2.38-.57-2.55-.87-.06-.11-.08-.21-.05-.32.09-.32.59-.59.99-.82.15-.08.28-.15.38-.22.28-.18.42-.45.4-.76-.02-.34-.25-.67-.56-.83-.29-.15-.61-.12-.9.07l-1.37.91c-.62-.42-1.13-.7-1.96-.94-.21-.06-.44-.02-.65.11-.23.14-.4.39-.45.63-.08.44.16.8.71,1.07.85.42.88.44,1.13,1.03.06.13-.05.25-.09.28-.43.41-.88.57-1.98.73-.34.05-.61.25-.74.57-.13.33-.08.73.12.99.15.2.38.3.64.3.05,0,.09,0,.14-.01,1.3-.18,2.36-.54,3.24-1.1.05.01.16.08.2.11.03.02.06.04.08.05.99.53,1.63.72,2.72.84.22.02.51.03.77-.08.34-.15.52-.49.48-.89-.04-.36-.28-.76-.73-.84Z"/>
            <path class="cls-2" d="M38.66,53.48c-.24,0-.48-.03-.72-.09-3.44-.83-1.84-6.1,1.61-4.89,2.82.99,2.03,4.98-.89,4.97Z"/>
            <path class="cls-2" d="M61.18,50.68c-.58-.11-1.16-.23-1.73-.34.12-.03.23-.06.35-.09,1.22-.28.93-2.22-.3-1.93-1.32.31-2.51.85-3.59,1.68-.72.55-.29,1.58.5,1.74,1.52.3,3.04.59,4.56.89,1.24.24,1.45-1.7.22-1.94Z"/>
          </g>
        </g>
      </g>
    </g>
  </g>
</svg>