<svg width="56" height="57" viewBox="0 0 56 57" fill="none" xmlns="http://www.w3.org/2000/svg">
<g filter="url(#filter0_d_62_977)">
<path d="M45.3161 18.2695C44.0159 14.7179 40.1154 11.7502 36.4024 13.076C36.0466 9.81979 32.864 5.96588 28.336 6.00023C24.2155 6.03458 19.6746 8.99542 19.9656 15.1163C19.9462 14.7591 17.5787 14.7316 17.307 14.7522C16.3367 14.8141 15.3794 15.082 14.4997 15.5148C8.16689 18.6336 8.60675 28.4504 15.2629 30.7655C13.9951 35.0041 15.5993 39.7717 19.6228 41.3105C22.2749 42.3272 25.8585 41.812 28.3489 39.9091C30.9687 42.0525 34.617 42.8081 37.8901 41.1594C41.9848 39.0985 43.6989 34.6675 42.5734 30.0373C46.1764 27.6948 46.6486 21.8693 45.3226 18.2558L45.3161 18.2695Z" fill="#F8CAD7"/>
<path d="M29.3452 21.3198C27.2299 20.887 24.8171 22.1373 23.7692 25.5309C21.4211 33.1563 32.5018 36.8591 33.1228 27.4476C33.3557 23.9647 31.4992 21.7595 29.3387 21.3198H29.3452Z" fill="#E892B1"/>
<path d="M25.5156 20.5575C25.4962 20.2277 25.3863 19.8774 25.1663 19.6301C24.9917 19.4309 24.7782 19.2797 24.5453 19.1835C24.5389 19.1835 24.5259 19.1835 24.5195 19.1767C24.1766 18.9637 23.8209 18.895 23.4263 18.9568C23.1934 18.9912 22.9735 19.0942 22.7729 19.2454C22.5142 19.369 22.2878 19.5682 22.1067 19.8293C21.9191 20.1041 21.835 20.4407 21.8285 20.7773C21.7574 21.1208 21.7768 21.533 21.9385 21.8353C22.1196 22.1856 22.4042 22.4947 22.7729 22.6184C22.9735 22.6802 23.1869 22.7146 23.4004 22.694C23.4133 22.694 23.4263 22.694 23.4392 22.694C24.2284 22.7146 24.8752 22.2337 25.2828 21.5399C25.4639 21.2376 25.5415 20.9147 25.5221 20.5575H25.5156Z" fill="#E892B1"/>
<path d="M30.2702 18.2628C30.2378 18.0567 30.1602 17.8712 30.0373 17.7132C29.8627 17.4385 29.6104 17.198 29.3064 17.1018C29.177 17.0744 29.0476 17.0469 28.9182 17.0194C28.7953 17.0125 28.6724 17.0194 28.556 17.04C28.4137 17.0057 28.2714 16.9988 28.1291 17.0194C27.935 17.0194 27.7474 17.0606 27.5728 17.1637C27.4693 17.2392 27.3658 17.3148 27.2623 17.3904C27.107 17.5209 26.9971 17.6789 26.9259 17.8712C26.8548 17.988 26.8095 18.1186 26.803 18.256C26.7448 18.462 26.7448 18.6681 26.7901 18.8811V18.8948C26.803 19.1215 26.8483 19.3482 26.9388 19.5337C26.9388 19.5475 26.9453 19.5612 26.9518 19.5681C27.1329 19.9184 27.4175 20.2276 27.7862 20.3512C27.9156 20.3787 28.045 20.4062 28.1743 20.4336C28.4396 20.4543 28.6918 20.3993 28.9312 20.2756L29.2934 20.1383C29.3969 20.0627 29.5004 19.9871 29.6039 19.9116C29.6168 19.8978 29.6233 19.8841 29.6362 19.8703C29.6815 19.836 29.7268 19.8016 29.785 19.7535C29.9403 19.623 30.0502 19.465 30.1214 19.2727C30.2249 19.0941 30.2766 18.8948 30.2831 18.6819C30.2766 18.5445 30.2637 18.4002 30.2572 18.2628H30.2702Z" fill="#E892B1"/>
<path d="M35.1149 19.7673C35.0503 19.6986 34.9856 19.6299 34.9144 19.5612C34.9015 19.5338 34.895 19.5063 34.8821 19.4788C34.8239 19.3414 34.7204 19.1834 34.6492 19.0941C34.177 18.5102 33.3878 18.3522 32.741 18.6888C32.6245 18.7506 32.5146 18.8399 32.4111 18.9361C32.1976 19.1147 32.0294 19.3551 31.9647 19.6231C31.8936 19.9185 31.8483 20.1726 31.9065 20.4818C31.9324 20.626 31.9777 20.7703 32.0359 20.9077C32.1588 21.1687 32.3593 21.4161 32.5922 21.5741C32.6181 21.5947 32.6504 21.6084 32.6763 21.6221C32.7474 21.6908 32.8121 21.7664 32.8833 21.8351C33.1679 22.1305 33.4849 22.3366 33.8924 22.3641C34.2546 22.3916 34.6945 22.2473 34.9597 21.9794C35.2379 21.6977 35.4513 21.3199 35.4578 20.9077C35.4642 20.5093 35.3737 20.0627 35.0955 19.7742L35.1149 19.7673Z" fill="#E892B1"/>
</g>
<defs>
<filter id="filter0_d_62_977" x="0" y="0" width="56" height="56.0537" filterUnits="userSpaceOnUse" color-interpolation-filters="sRGB">
<feFlood flood-opacity="0" result="BackgroundImageFix"/>
<feColorMatrix in="SourceAlpha" type="matrix" values="0 0 0 0 0 0 0 0 0 0 0 0 0 0 0 0 0 0 127 0" result="hardAlpha"/>
<feOffset dy="4"/>
<feGaussianBlur stdDeviation="5"/>
<feComposite in2="hardAlpha" operator="out"/>
<feColorMatrix type="matrix" values="0 0 0 0 0.530796 0 0 0 0 0.494782 0 0 0 0 0.97497 0 0 0 0.2 0"/>
<feBlend mode="normal" in2="BackgroundImageFix" result="effect1_dropShadow_62_977"/>
<feBlend mode="normal" in="SourceGraphic" in2="effect1_dropShadow_62_977" result="shape"/>
</filter>
</defs>
</svg>
