<svg width="56" height="57" viewBox="0 0 56 57" fill="none" xmlns="http://www.w3.org/2000/svg">
<g filter="url(#filter0_d_62_931)">
<path d="M45.9225 26.0999C46.1561 24.8292 45.837 23.5814 45.2958 22.3506C44.5551 20.6754 43.1251 19.8891 41.7692 18.9204C40.6981 18.1569 38.9091 17.4561 38.3223 16.1968C38.1742 15.8834 38.1628 15.5245 38.1343 15.1826C37.7924 10.533 34.79 4.93764 29.2864 6.1741C27.9019 6.48748 26.6086 7.13135 25.435 7.91767C24.381 8.62422 23.8796 9.50739 22.7915 10.0088C21.4583 10.6299 19.2136 10.2367 17.7835 10.2424C15.7952 10.2424 13.1972 10.2367 11.6931 11.7353C10.189 13.2339 9.85859 15.5928 10.3429 17.57C10.6961 19.023 11.1291 20.4646 12.0407 21.7979C12.8839 23.0401 11.5963 24.4532 11.0721 25.7067C10.2631 27.6326 9.49396 30.2081 10.4283 32.2081C11.1918 33.8377 12.6844 34.7836 14.4506 35.2223C16.5871 35.7579 20.41 35.2394 22.3471 36.2081C22.8256 36.4474 23.2187 36.8234 23.6176 37.1824C26.1415 39.4445 31.0525 43.2849 34.6703 41.6667C38.1799 40.0998 39.1541 36.4645 39.7922 33.0742C39.8663 32.6639 40.1226 32.436 40.5044 32.2822C42.9998 31.2736 45.4439 28.8235 45.9396 26.0999H45.9225Z" fill="#F6EE77"/>
<path d="M32.1749 20.721C32.4256 20.5387 32.8073 20.4304 33.1207 20.4874C33.7701 20.6128 34.3627 21.2452 34.2145 21.9518C34.1462 22.2709 34.0835 22.59 34.0151 22.909C33.9411 23.2509 33.7872 23.5586 33.4967 23.7694C33.246 23.9518 32.8643 24.06 32.5509 24.0031C31.9014 23.8777 31.3089 23.2452 31.457 22.5387C31.5254 22.2196 31.5881 21.9005 31.6564 21.5814C31.7305 21.2395 31.8843 20.9319 32.1749 20.721Z" fill="#F4BE32"/>
<path d="M24.6488 17.6898C25.1786 18.1514 25.304 18.9377 24.8539 19.5018L24.0392 20.5274C23.6176 21.0573 22.7516 21.1941 22.2274 20.7325C21.6976 20.271 21.5723 19.4847 22.0223 18.9206L22.8371 17.895C23.2587 17.365 24.1246 17.2283 24.6488 17.6898Z" fill="#F4BE32"/>
<path d="M30.1352 23.576C29.8446 23.0233 28.9843 22.6529 28.4203 23.0404C28.0101 23.3253 27.3663 23.8096 26.7738 24.0546C26.6484 23.5589 26.5801 23.0005 26.4775 22.5903C26.0787 21.0062 23.6004 21.576 24.0049 23.1658C24.3069 24.3794 24.4037 26.4592 25.9306 26.7213C27.1327 26.9264 28.6596 25.9464 29.6053 25.2911C30.1694 24.9036 30.4827 24.2313 30.1409 23.576H30.1352Z" fill="#F4BE32"/>
</g>
<defs>
<filter id="filter0_d_62_931" x="0" y="0" width="56" height="56.0537" filterUnits="userSpaceOnUse" color-interpolation-filters="sRGB">
<feFlood flood-opacity="0" result="BackgroundImageFix"/>
<feColorMatrix in="SourceAlpha" type="matrix" values="0 0 0 0 0 0 0 0 0 0 0 0 0 0 0 0 0 0 127 0" result="hardAlpha"/>
<feOffset dy="4"/>
<feGaussianBlur stdDeviation="5"/>
<feComposite in2="hardAlpha" operator="out"/>
<feColorMatrix type="matrix" values="0 0 0 0 0.530796 0 0 0 0 0.494782 0 0 0 0 0.97497 0 0 0 0.2 0"/>
<feBlend mode="normal" in2="BackgroundImageFix" result="effect1_dropShadow_62_931"/>
<feBlend mode="normal" in="SourceGraphic" in2="effect1_dropShadow_62_931" result="shape"/>
</filter>
</defs>
</svg>
