<svg width="196" height="256" viewBox="0 0 196 256" fill="none" xmlns="http://www.w3.org/2000/svg">
<g clip-path="url(#clip0_12_92)">
<path d="M11.8257 222.594C24.9519 230.081 40.5122 232.922 56.0037 230.876C73.6931 228.567 90.263 221.52 106.358 214.126C121.988 206.941 137.608 199.199 150.29 187.294C175.62 163.498 179.481 125.428 159.484 96.9431C151.808 86.0206 141.028 78.2448 129.046 72.6049C124.199 70.3335 118.53 69.349 114.755 65.279C108.314 58.2821 109.841 56.1604 104.058 48.6698C99.2513 42.3818 92.9601 37.2374 85.8997 33.6762C72.0012 26.6942 55.2262 26.3156 41.6381 34.2281C35.1785 37.9949 31.1113 42.2917 26.9442 49.3119C25.345 51.9858 21.6711 49.7496 17.4373 49.9228C-6.46251 50.9295 -20.5494 70.14 -22.68 89.8438C-24.1204 103.322 -20.3841 116.325 -16.9289 129.414C-16.14 132.34 -16.7865 131.43 -18.6827 136.475C-27.1278 158.842 -21.5747 188.145 -6.84571 206.631C-1.56465 213.266 4.80099 218.577 11.8257 222.594Z" fill="white"/>
<path d="M36.7033 69.5389C33.6561 66.3829 38.3449 62.0481 41.3589 65.219C47.6872 71.7862 51.8479 80.2019 53.2084 89.2295C53.8566 93.5377 47.5934 94.6179 46.9302 90.2764C45.7355 82.3342 42.2486 75.3366 36.67 69.5537L36.7033 69.5389Z" fill="#F9E1E7"/>
<path d="M52.3911 94.9924C51.9253 95.2006 51.3964 95.357 50.8711 95.4319C47.7337 95.9146 45.0152 93.8512 44.5327 90.6283C43.3985 83.1789 40.1683 76.6663 34.9497 71.2423C33.4651 69.7068 32.9453 67.7401 33.4842 65.82C34.0231 63.8999 35.6733 62.3227 37.6522 61.8381C39.631 61.3534 41.6128 61.947 43.1456 63.5009C49.7708 70.3752 54.2329 79.3758 55.6723 88.8479C56.1319 91.841 54.5204 94.0406 52.4244 94.9775L52.3911 94.9924ZM38.6718 66.62C38.4389 66.7241 38.2174 66.943 38.1588 67.1691C38.1553 67.2506 38.0818 67.4434 38.4567 67.8356C44.4102 74.0106 48.0907 81.4415 49.3609 89.9097C49.4249 90.3209 49.5555 90.7023 50.1474 90.5977C50.9687 90.4704 50.8337 89.8111 50.8109 89.5814C49.5407 81.1132 45.5439 73.0641 39.6237 66.8742C39.2007 66.4636 38.938 66.501 38.8049 66.5605C38.7716 66.5754 38.7051 66.6051 38.6718 66.62Z" fill="#F9E1E7"/>
<path d="M21.2293 168.614C17.3741 166.418 12.4059 167.36 9.59857 170.813C9.30706 171.144 9.07861 171.526 8.86854 171.859C6.00142 170.982 2.69772 171.539 0.278812 173.54C-3.56185 176.736 -3.72508 182.086 -1.50421 186.251C2.36457 193.478 14.6488 198.902 21.4194 192.438C27.4407 186.708 29.4661 173.288 21.1811 168.595L21.2293 168.614Z" fill="#FBE2E7"/>
<path d="M152.973 110.329C149.118 108.134 144.15 109.075 141.342 112.529C141.051 112.859 140.822 113.241 140.612 113.575C137.745 112.697 134.442 113.254 132.023 115.255C128.182 118.451 128.019 123.801 130.288 127.985C134.157 135.212 146.474 140.621 153.245 134.157C159.251 128.393 161.291 115.007 153.006 110.314L152.973 110.329Z" fill="#FBE2E7"/>
<path d="M91.0845 151.464C85.8879 152.788 82.317 153.104 81.3046 152.357C80.9411 152.08 80.7256 151.776 80.6616 151.365C80.4844 150.165 81.7458 148.522 82.734 147.16C83.1139 146.671 83.4422 146.244 83.6706 145.862C84.3341 144.846 84.3978 143.738 83.8695 142.735C83.2965 141.631 82.0397 140.874 80.77 140.802C79.5818 140.733 78.5618 141.309 77.8799 142.373L74.6772 147.443C71.9888 146.965 69.8749 146.791 66.756 147.225C65.9679 147.338 65.2623 147.813 64.7572 148.558C64.2005 149.367 64.0073 150.453 64.1984 151.327C64.5876 152.912 65.9223 153.755 68.1544 153.837C71.608 153.973 71.7376 153.995 73.4482 155.589C73.8414 155.933 73.6542 156.496 73.5658 156.656C72.7458 158.662 71.4869 159.864 68.0654 162.033C67.0087 162.705 66.4083 163.773 66.4524 165.033C66.5114 166.326 67.2735 167.585 68.3262 168.154C69.1232 168.597 70.0374 168.588 70.9024 168.202C71.0688 168.127 71.2019 168.068 71.3533 167.96C75.4104 165.427 78.401 162.651 80.4947 159.476C80.6759 159.435 81.1462 159.505 81.324 159.545C81.4536 159.567 81.5832 159.589 81.6646 159.593C85.7479 159.887 88.1602 159.568 91.9655 158.347C92.7272 158.087 93.707 157.689 94.4082 156.936C95.316 155.93 95.4084 154.53 94.6796 153.256C94.0103 152.116 92.616 151.14 90.9996 151.542L91.0845 151.464Z" fill="#866D59"/>
<path d="M44.2421 168.123C43.4436 168.48 42.6004 168.737 41.7126 168.894C29.0311 171.244 26.5049 151.302 39.7856 150.204C50.6426 149.31 53.9573 163.781 44.2272 168.09L44.2421 168.123Z" fill="#866D59"/>
<path d="M114.998 125.303C112.904 125.799 110.796 126.262 108.736 126.743C109.09 126.464 109.412 126.201 109.766 125.922C113.408 123.175 109.554 117.141 105.893 119.937C101.963 122.933 98.8083 126.502 96.4513 130.874C94.875 133.778 97.8399 136.571 100.707 135.929C106.211 134.668 111.7 133.374 117.204 132.114C121.687 131.069 119.496 124.292 115.046 125.322L114.998 125.303Z" fill="#866D59"/>
</g>
<defs>
<clipPath id="clip0_12_92">
<rect width="200" height="190.941" fill="white" transform="translate(-65 81.6116) rotate(-24.0829)"/>
</clipPath>
</defs>
</svg>
