<svg width="261" height="256" viewBox="0 0 261 256" fill="none" xmlns="http://www.w3.org/2000/svg">
<g clip-path="url(#clip0_121_285)">
<path d="M76.8257 222.594C89.9519 230.081 105.512 232.922 121.004 230.876C138.693 228.567 155.263 221.52 171.358 214.126C186.988 206.941 202.608 199.199 215.29 187.294C240.62 163.498 244.481 125.428 224.484 96.9431C216.808 86.0206 206.028 78.2448 194.046 72.6049C189.199 70.3335 183.53 69.349 179.755 65.279C173.314 58.2821 174.841 56.1604 169.058 48.6698C164.251 42.3818 157.96 37.2374 150.9 33.6762C137.001 26.6942 120.226 26.3156 106.638 34.2281C100.178 37.9949 96.1113 42.2917 91.9442 49.3119C90.345 51.9858 86.6711 49.7496 82.4373 49.9228C58.5375 50.9295 44.4506 70.14 42.32 89.8438C40.8796 103.322 44.6159 116.325 48.0711 129.414C48.86 132.34 48.2135 131.43 46.3173 136.475C37.8722 158.842 43.4253 188.145 58.1543 206.631C63.4353 213.266 69.801 218.577 76.8257 222.594Z" fill="white"/>
<path d="M101.703 69.5386C98.6561 66.3826 103.345 62.0479 106.359 65.2187C112.687 71.786 116.848 80.2017 118.208 89.2292C118.857 93.5374 112.593 94.6176 111.93 90.2761C110.736 82.3339 107.249 75.3363 101.67 69.5535L101.703 69.5386Z" fill="#F9E1E7"/>
<path d="M117.391 94.9921C116.925 95.2003 116.396 95.3567 115.871 95.4316C112.734 95.9143 110.015 93.8509 109.533 90.6281C108.399 83.1786 105.168 76.666 99.9497 71.242C98.4651 69.7066 97.9453 67.7399 98.4842 65.8198C99.0231 63.8997 100.673 62.3225 102.652 61.8378C104.631 61.3532 106.613 61.9467 108.146 63.5006C114.771 70.3749 119.233 79.3756 120.672 88.8477C121.132 91.8408 119.52 94.0404 117.424 94.9773L117.391 94.9921ZM103.672 66.6197C103.439 66.7238 103.217 66.9428 103.159 67.1689C103.155 67.2504 103.082 67.4432 103.457 67.8354C109.41 74.0104 113.091 81.4412 114.361 89.9094C114.425 90.3206 114.555 90.7021 115.147 90.5974C115.969 90.4702 115.834 89.8109 115.811 89.5812C114.541 81.113 110.544 73.0639 104.624 66.874C104.201 66.4633 103.938 66.5008 103.805 66.5602C103.772 66.5751 103.705 66.6049 103.672 66.6197Z" fill="#F9E1E7"/>
<path d="M86.2293 168.614C82.3741 166.418 77.4059 167.36 74.5986 170.813C74.3071 171.144 74.0786 171.526 73.8685 171.859C71.0014 170.982 67.6977 171.539 65.2788 173.54C61.4381 176.736 61.2749 182.086 63.4958 186.251C67.3646 193.478 79.6488 198.902 86.4194 192.438C92.4407 186.708 94.4661 173.288 86.1811 168.595L86.2293 168.614Z" fill="#FBE2E7"/>
<path d="M217.973 110.329C214.118 108.134 209.15 109.075 206.342 112.529C206.051 112.859 205.822 113.241 205.612 113.575C202.745 112.697 199.442 113.254 197.023 115.255C193.182 118.451 193.019 123.801 195.288 127.985C199.157 135.212 211.474 140.621 218.245 134.157C224.251 128.393 226.291 115.007 218.006 110.314L217.973 110.329Z" fill="#FBE2E7"/>
<path d="M156.085 151.465C150.888 152.788 147.317 153.104 146.305 152.358C145.941 152.08 145.726 151.777 145.662 151.366C145.484 150.165 146.746 148.522 147.734 147.161C148.114 146.671 148.442 146.244 148.671 145.862C149.334 144.846 149.398 143.738 148.869 142.735C148.297 141.632 147.04 140.874 145.77 140.802C144.582 140.733 143.562 141.309 142.88 142.373L139.677 147.443C136.989 146.966 134.875 146.791 131.756 147.225C130.968 147.338 130.262 147.813 129.757 148.559C129.201 149.367 129.007 150.453 129.198 151.327C129.588 152.913 130.922 153.755 133.154 153.837C136.608 153.973 136.738 153.995 138.448 155.589C138.841 155.933 138.654 156.497 138.566 156.656C137.746 158.662 136.487 159.864 133.065 162.033C132.009 162.705 131.408 163.773 131.452 165.033C131.511 166.326 132.274 167.585 133.326 168.154C134.123 168.597 135.037 168.589 135.902 168.202C136.069 168.128 136.202 168.068 136.353 167.96C140.41 165.427 143.401 162.651 145.495 159.476C145.676 159.435 146.146 159.505 146.324 159.546C146.454 159.568 146.583 159.59 146.665 159.593C150.748 159.887 153.16 159.569 156.965 158.348C157.727 158.087 158.707 157.689 159.408 156.936C160.316 155.931 160.408 154.53 159.68 153.256C159.01 152.116 157.616 151.14 156 151.543L156.085 151.465Z" fill="#866D59"/>
<path d="M109.242 168.123C108.444 168.48 107.6 168.737 106.713 168.894C94.0311 171.244 91.5049 151.302 104.786 150.204C115.643 149.31 118.957 163.781 109.227 168.09L109.242 168.123Z" fill="#866D59"/>
<path d="M179.998 125.303C177.904 125.799 175.796 126.262 173.736 126.743C174.09 126.464 174.412 126.201 174.766 125.922C178.408 123.175 174.554 117.141 170.893 119.937C166.963 122.933 163.808 126.502 161.451 130.874C159.875 133.778 162.84 136.571 165.707 135.929C171.211 134.668 176.7 133.374 182.204 132.114C186.687 131.069 184.496 124.292 180.046 125.322L179.998 125.303Z" fill="#866D59"/>
</g>
<defs>
<clipPath id="clip0_121_285">
<rect width="200" height="190.941" fill="white" transform="translate(0 81.6113) rotate(-24.0829)"/>
</clipPath>
</defs>
</svg>
